<svg width="22" height="22" viewBox="0 0 22 22" fill="none" xmlns="http://www.w3.org/2000/svg">
<g clip-path="url(#clip0)">
<path fill-rule="evenodd" clip-rule="evenodd" d="M4.23204 14.6675V13.3143C4.23204 13.0804 4.04083 12.8904 3.80815 12.8904H2.16021C1.92634 12.8904 1.73633 13.0804 1.73633 13.3143V14.6675L3.13668 15.5117L4.23204 14.6675Z" fill="#A55B80"/>
<path fill-rule="evenodd" clip-rule="evenodd" d="M17.7681 9.10816L19.0159 9.99L20.2638 9.10816V7.77075C20.2638 7.52957 20.0653 7.33105 19.8241 7.33105H18.2066C17.9654 7.33105 17.7681 7.52961 17.7681 7.77075V9.10816Z" fill="#5BA55B"/>
<path fill-rule="evenodd" clip-rule="evenodd" d="M11.4805 3.55034L12.7283 4.51163L13.9762 3.55034V2.21289C13.9762 1.97051 13.7789 1.77319 13.5365 1.77319H11.9202C11.679 1.77319 11.4805 1.97051 11.4805 2.21289V3.55034Z" fill="#5B80A5"/>
<path fill-rule="evenodd" clip-rule="evenodd" d="M9.10411 3.55034V2.21534C9.10411 1.97175 8.90435 1.77319 8.66196 1.77319H7.05175C6.80816 1.77319 6.6084 1.97175 6.6084 2.21534V3.55034L7.85625 4.31827L9.10411 3.55034Z" fill="#5B80A5"/>
<path fill-rule="evenodd" clip-rule="evenodd" d="M4.232 3.55034V2.19953C4.232 1.96445 4.03954 1.77319 3.8057 1.77319H2.16262C1.92874 1.77319 1.73633 1.96445 1.73633 2.19953V3.55034L2.98414 4.79093L4.232 3.55034Z" fill="#5B80A5"/>
<path fill-rule="evenodd" clip-rule="evenodd" d="M0.322266 4.19465V8.4639C0.322266 8.81835 0.612133 9.10826 0.966582 9.10826H7.25278H14.746C15.1005 9.10826 15.3903 8.81835 15.3903 8.4639V4.19465C15.3903 3.8402 15.1005 3.55029 14.746 3.55029H13.9762H11.4805H9.10418H6.60846H4.23208H1.73637H0.966582C0.612133 3.55029 0.322266 3.84016 0.322266 4.19465Z" fill="#5B80A5"/>
<path fill-rule="evenodd" clip-rule="evenodd" d="M7.25272 9.1084C6.89827 9.1084 6.6084 9.39831 6.6084 9.75276V14.0233C6.6084 14.3777 6.89827 14.6676 7.25272 14.6676H14.7459H21.0334C21.3878 14.6676 21.6777 14.3777 21.6777 14.0233V9.75276C21.6777 9.39831 21.3878 9.1084 21.0334 9.1084H20.2636H17.7679H14.7459H7.25272Z" fill="#5BA55B"/>
<path fill-rule="evenodd" clip-rule="evenodd" d="M14.746 14.6675H7.25278H4.23208H1.73637H0.966582C0.612133 14.6675 0.322266 14.9574 0.322266 15.3118V19.5811C0.322266 19.9367 0.612133 20.2266 0.966582 20.2266H14.746C15.1005 20.2266 15.3903 19.9367 15.3903 19.5811V15.3118C15.3903 14.9573 15.1005 14.6675 14.746 14.6675Z" fill="#A55B80"/>
<path fill-rule="evenodd" clip-rule="evenodd" d="M12.2817 9.10826H14.7458C15.1002 9.10826 15.3901 8.81835 15.3901 8.4639V4.19465C15.3901 3.8402 15.1002 3.55029 14.7458 3.55029H13.976H12.2817C12.6362 3.55029 12.9261 3.8402 12.9261 4.19465V8.4639C12.9261 8.81835 12.6362 9.10826 12.2817 9.10826Z" fill="#486684"/>
<path fill-rule="evenodd" clip-rule="evenodd" d="M19.2137 9.75251V14.023C19.2137 14.3775 18.9238 14.6674 18.5693 14.6674H21.0334C21.3878 14.6674 21.6777 14.3775 21.6777 14.023V9.75251C21.6777 9.39806 21.3878 9.10815 21.0334 9.10815H20.2636H18.5693C18.9237 9.1082 19.2137 9.39806 19.2137 9.75251Z" fill="#488448"/>
<path fill-rule="evenodd" clip-rule="evenodd" d="M15.3901 15.3118C15.3901 14.9574 15.1002 14.6675 14.7458 14.6675H12.2817C12.6362 14.6675 12.9261 14.9574 12.9261 15.3118V19.5811C12.9261 19.9367 12.6362 20.2266 12.2817 20.2266H14.7458C15.1002 20.2266 15.3901 19.9367 15.3901 19.5811V15.3118Z" fill="#844866"/>
<path fill-rule="evenodd" clip-rule="evenodd" d="M3.34914 2.19953V3.55034H4.2322V2.19953C4.2322 1.96445 4.03974 1.77319 3.8059 1.77319H2.92285C3.15793 1.77319 3.34914 1.96445 3.34914 2.19953Z" fill="#486684"/>
<path fill-rule="evenodd" clip-rule="evenodd" d="M8.22096 2.21534V3.55034H9.10401V2.21534C9.10401 1.97175 8.90425 1.77319 8.66186 1.77319H7.77881C8.02244 1.77319 8.22096 1.97175 8.22096 2.21534Z" fill="#486684"/>
<path fill-rule="evenodd" clip-rule="evenodd" d="M13.0945 2.21289V3.55029H13.9763V2.21289C13.9763 1.97051 13.779 1.77319 13.5366 1.77319H12.6548C12.8959 1.77319 13.0945 1.97051 13.0945 2.21289Z" fill="#486684"/>
<path fill-rule="evenodd" clip-rule="evenodd" d="M19.3806 7.77075V9.10816H20.2637V7.77075C20.2637 7.52957 20.0652 7.33105 19.824 7.33105H18.9409C19.1833 7.33105 19.3806 7.52961 19.3806 7.77075Z" fill="#488448"/>
<path fill-rule="evenodd" clip-rule="evenodd" d="M4.2317 14.6675V13.3143C4.2317 13.0804 4.04049 12.8904 3.80781 12.8904H2.9248C3.15868 12.8904 3.34869 13.0804 3.34869 13.3143V14.6675H4.2317Z" fill="#844866"/>
<path d="M21.0334 8.78604H20.5859V7.7709C20.5859 7.35075 20.2441 7.00894 19.8239 7.00894H18.2064C17.7869 7.00894 17.4457 7.35075 17.4457 7.7709V8.78604H15.6572C15.693 8.68523 15.7126 8.57687 15.7126 8.46394V4.1947C15.7126 3.66171 15.279 3.22807 14.746 3.22807H14.2985V2.21289C14.2985 1.79274 13.9567 1.45093 13.5365 1.45093H11.9203C11.5001 1.45093 11.1583 1.79274 11.1583 2.21289V3.22803H9.42649V2.21534C9.42649 1.79382 9.08359 1.45093 8.66207 1.45093H7.05182C6.62969 1.45093 6.28624 1.79382 6.28624 2.21534V3.22807H4.55439V2.19949C4.55439 1.78673 4.21859 1.45093 3.80583 1.45093H2.1627C1.74995 1.45093 1.4141 1.78673 1.4141 2.19949V3.22807H0.966582C0.433598 3.22807 0 3.66167 0 4.1947V8.46394C0 8.99693 0.433598 9.43057 0.966582 9.43057H2.68035C2.85837 9.43057 3.00261 9.28628 3.00261 9.1083C3.00261 8.93033 2.85837 8.78604 2.68035 8.78604H0.966582C0.788992 8.78604 0.644531 8.64158 0.644531 8.46394V4.1947C0.644531 4.01711 0.788992 3.8726 0.966582 3.8726H14.746C14.9236 3.8726 15.0681 4.01706 15.0681 4.1947V8.46394C15.0681 8.64153 14.9236 8.78604 14.746 8.78604H4.16879C3.99077 8.78604 3.84652 8.93033 3.84652 9.1083C3.84652 9.28628 3.99077 9.43057 4.16879 9.43057H6.34159C6.30584 9.53137 6.2862 9.63974 6.2862 9.75266V14.0232C6.2862 14.1361 6.30584 14.2444 6.34159 14.3452H4.55434V13.3142C4.55434 12.9028 4.21962 12.5681 3.80823 12.5681H2.16025C1.74883 12.5681 1.4141 12.9028 1.4141 13.3142V14.3452H0.966582C0.433598 14.3452 0 14.7788 0 15.3118V19.5811C0 20.1147 0.433598 20.5489 0.966582 20.5489H6.97628C7.1543 20.5489 7.29854 20.4046 7.29854 20.2266C7.29854 20.0487 7.1543 19.9044 6.97628 19.9044H0.966582C0.788992 19.9044 0.644531 19.7594 0.644531 19.5811V15.3118C0.644531 15.1342 0.788992 14.9897 0.966582 14.9897H14.746C14.9236 14.9897 15.0681 15.1342 15.0681 15.3118V19.5811C15.0681 19.7594 14.9236 19.9044 14.746 19.9044H8.29297C8.11495 19.9044 7.9707 20.0487 7.9707 20.2266C7.9707 20.4046 8.11495 20.5489 8.29297 20.5489H14.746C15.279 20.5489 15.7126 20.1147 15.7126 19.5811V15.3118C15.7126 15.1989 15.693 15.0906 15.6572 14.9897H21.0334C21.5664 14.9897 22 14.5561 22 14.0231V9.75262C22 9.21964 21.5664 8.78604 21.0334 8.78604ZM2.05863 3.22807V2.19949C2.05863 2.14311 2.10629 2.09546 2.1627 2.09546H3.80579C3.86216 2.09546 3.90981 2.14311 3.90981 2.19949V3.22807H2.05863ZM6.93073 3.22807V2.21534C6.93073 2.15037 6.98616 2.09546 7.05177 2.09546H8.66203C8.72704 2.09546 8.78191 2.15037 8.78191 2.21534V3.22807H6.93073ZM11.8028 3.22807V2.21289C11.8028 2.14926 11.8566 2.09546 11.9202 2.09546H13.5365C13.6012 2.09546 13.6539 2.14814 13.6539 2.21289V3.22803H11.8028V3.22807ZM18.0902 7.77086C18.0902 7.70722 18.1434 7.65342 18.2064 7.65342H19.8239C19.8876 7.65342 19.9414 7.70722 19.9414 7.77086V8.786H18.0902V7.77086ZM2.05863 14.3452V13.3142C2.05863 13.2582 2.10427 13.2126 2.16025 13.2126H3.80823C3.86328 13.2126 3.90981 13.2591 3.90981 13.3142V14.3452H2.05863ZM21.3555 14.0231C21.3555 14.2007 21.211 14.3452 21.0334 14.3452H7.25278C7.07519 14.3452 6.93073 14.2007 6.93073 14.0231V9.75262C6.93073 9.57503 7.07519 9.43053 7.25278 9.43053H21.0334C21.211 9.43053 21.3555 9.57499 21.3555 9.75262V14.0231Z" fill="black"/>
</g>
<defs>
<clipPath id="clip0">
<rect width="22" height="22" fill="white"/>
</clipPath>
</defs>
</svg>
