<svg width="22" height="22" viewBox="0 0 22 22" fill="none" xmlns="http://www.w3.org/2000/svg">
<path d="M2.93359 18.4631C3.80469 18.1013 4.54279 17.5351 5.1479 16.7645C5.75302 15.9871 6.05558 15.2132 6.05558 14.4426V4.10983H3.22285V2.3609H7.98062V14.4426C7.98062 15.1529 7.7878 15.8699 7.40212 16.5936C7.02309 17.3173 6.5011 17.9639 5.83614 18.5335C5.17783 19.1031 4.45635 19.5252 3.67169 19.7999L2.93359 18.4631ZM15.7606 2.20008C16.9177 2.19338 18.1146 2.45137 19.3514 2.97403L18.8627 4.79332C17.6259 4.31086 16.5786 4.06963 15.7207 4.06963C14.8496 4.06963 14.1581 4.2405 13.6461 4.58225C13.134 4.92399 12.8781 5.39975 12.8781 6.00953C12.8781 6.45179 12.9678 6.82034 13.1474 7.11518C13.3335 7.40332 13.6461 7.66465 14.0849 7.89918C14.5238 8.13371 15.1356 8.36825 15.9202 8.60279C17.3233 9.01154 18.3207 9.55093 18.9126 10.221C19.5044 10.8845 19.8003 11.7857 19.8003 12.9248C19.8003 14.2315 19.3648 15.2567 18.4937 16.0006C17.6226 16.7443 16.4256 17.1162 14.9029 17.1162C13.5929 17.1162 12.1366 16.7745 10.5341 16.091L11.1226 14.3019C12.0203 14.657 12.7351 14.905 13.2671 15.0457C13.799 15.1797 14.3443 15.2467 14.9029 15.2467C15.7873 15.2467 16.4854 15.0423 16.9975 14.6336C17.5095 14.2181 17.7655 13.6552 17.7655 12.945C17.7655 12.4893 17.6691 12.1107 17.4762 11.8091C17.2834 11.5076 16.9509 11.2362 16.4788 10.995C16.0134 10.7537 15.3517 10.5159 14.4939 10.2813C13.184 9.92623 12.2463 9.43707 11.6811 8.81386C11.1159 8.19064 10.8333 7.34971 10.8333 6.29097C10.8333 4.9977 11.2689 3.99257 12.1399 3.27557C13.0177 2.55857 14.2246 2.20008 15.7606 2.20008Z" fill="#CBCB41"/>
<path d="M3.10307 18.4071L2.86082 17.8112L2.2002 18.0873L2.54761 18.7205L3.10307 18.4071ZM5.30794 16.705L5.80641 17.105L5.80806 17.1028L5.30794 16.705ZM6.21175 4.02486H6.84739V3.38028H6.21175V4.02486ZM3.39109 4.02486H2.75545V4.66944H3.39109V4.02486ZM3.39109 2.27241V1.62783H2.75545V2.27241H3.39109ZM8.12859 2.27241H8.76423V1.62783H8.12859V2.27241ZM7.55256 16.5338L6.99255 16.2288L6.9904 16.2329L7.55256 16.5338ZM5.99325 18.4776L5.58157 17.9864L5.57918 17.9885L5.99325 18.4776ZM3.83802 19.7466L3.28257 20.06L3.54221 20.5332L4.04665 20.3554L3.83802 19.7466ZM3.34531 19.003C4.31682 18.5969 5.13885 17.9604 5.80641 17.105L4.80948 16.305C4.27196 16.9938 3.62408 17.4921 2.86082 17.8112L3.34531 19.003ZM5.80806 17.1028C6.47333 16.2428 6.84739 15.3313 6.84739 14.3784H5.57611C5.57611 14.97 5.34763 15.6093 4.80783 16.3072L5.80806 17.1028ZM6.84739 14.3784V4.02486H5.57611V14.3784H6.84739ZM6.21175 3.38028H3.39109V4.66944H6.21175V3.38028ZM4.02673 4.02486V2.27241H2.75545V4.02486H4.02673ZM3.39109 2.91699H8.12859V1.62783H3.39109V2.91699ZM7.49296 2.27241V14.3784H8.76423V2.27241H7.49296ZM7.49296 14.3784C7.49296 14.9682 7.33476 15.5826 6.99256 16.2288L8.11255 16.8387C8.53845 16.0346 8.76423 15.2122 8.76423 14.3784H7.49296ZM6.9904 16.2329C6.6535 16.8802 6.1867 17.4648 5.58157 17.9864L6.40492 18.9687C7.12404 18.3489 7.69679 17.6376 8.11471 16.8346L6.9904 16.2329ZM5.57918 17.9885C4.98141 18.509 4.33209 18.8901 3.6294 19.1377L4.04665 20.3554C4.90657 20.0525 5.69408 19.5876 6.40732 18.9666L5.57918 17.9885ZM4.39348 19.4332L3.65851 18.0937L2.54761 18.7205L3.28257 20.06L4.39348 19.4332ZM15.8755 2.11126V2.75585L15.8792 2.75583L15.8755 2.11126ZM19.451 2.88678L20.0646 3.05521L20.2099 2.51056L19.6968 2.29234L19.451 2.88678ZM18.9643 4.70973L18.7348 5.31084L19.3934 5.56933L19.5779 4.87816L18.9643 4.70973ZM13.2734 7.03626L12.7316 7.37339L12.736 7.38075L12.7407 7.38799L13.2734 7.03626ZM16.0344 8.52687L15.8537 9.14483L15.8579 9.14605L16.0344 8.52687ZM19.014 10.1484L18.5391 10.5769L18.5413 10.5793L19.014 10.1484ZM10.6712 16.0302L10.0678 15.8274L9.88328 16.392L10.4234 16.6238L10.6712 16.0302ZM11.2572 14.2374L11.4894 13.6374L10.8649 13.3888L10.6538 14.0346L11.2572 14.2374ZM13.3925 14.9827L13.2311 15.6062L13.2383 15.608L13.3925 14.9827ZM17.107 14.5698L17.5018 15.075L17.5057 15.0719L17.107 14.5698ZM16.5906 10.9239L16.2999 11.4971L16.3031 11.4988L16.5906 10.9239ZM14.6142 10.2088L14.7806 9.58669L14.7793 9.58637L14.6142 10.2088ZM12.2702 3.18892L11.8699 2.68819L11.8681 2.6897L12.2702 3.18892ZM15.8792 2.75583C16.9331 2.74969 18.0402 2.98577 19.2052 3.4812L19.6968 2.29234C18.3987 1.74033 17.1221 1.4594 15.8719 1.46669L15.8792 2.75583ZM18.8374 2.71833L18.3507 4.54129L19.5779 4.87816L20.0646 3.05521L18.8374 2.71833ZM19.1938 4.10861C17.9247 3.61044 16.7992 3.33999 15.8358 3.33999V4.62915C16.5806 4.62915 17.5409 4.84214 18.7348 5.31084L19.1938 4.10861ZM15.8358 3.33999C14.8935 3.33999 14.0679 3.52493 13.4189 3.96083L14.1209 5.03562C14.4916 4.78665 15.0432 4.62915 15.8358 4.62915V3.33999ZM13.4189 3.96083C12.7345 4.4205 12.3695 5.09731 12.3695 5.92838H13.6408C13.6408 5.53745 13.7856 5.26082 14.1209 5.03562L13.4189 3.96083ZM12.3695 5.92838C12.3695 6.45786 12.4765 6.95187 12.7316 7.37339L13.8151 6.69914C13.7126 6.52979 13.6408 6.28521 13.6408 5.92838H12.3695ZM12.7407 7.38799C13.0057 7.80066 13.4174 8.12691 13.9091 8.39132L14.5047 7.25238C14.1224 7.0468 13.9118 6.8493 13.806 6.68453L12.7407 7.38799ZM13.9091 8.39132C14.3996 8.65508 15.0542 8.9044 15.8537 9.14483L16.2152 7.90891C15.4519 7.67933 14.8883 7.45863 14.5047 7.25238L13.9091 8.39132ZM15.8579 9.14605C17.2062 9.54138 18.0656 10.0373 18.5391 10.5769L19.4888 9.71986C18.7838 8.91658 17.6568 8.3315 16.211 7.90762L15.8579 9.14605ZM18.5413 10.5793C18.9991 11.0958 19.2622 11.8298 19.2622 12.8576H20.5335C20.5335 11.6026 20.2074 10.5304 19.4867 9.71748L18.5413 10.5793ZM19.2622 12.8576C19.2622 14.0063 18.8905 14.8424 18.1859 15.4477L19.0077 16.4313C20.038 15.5461 20.5335 14.3276 20.5335 12.8576H19.2622ZM18.1859 15.4477C17.4668 16.0656 16.4378 16.4129 15.0214 16.4129V17.702C16.6375 17.702 17.992 17.3041 19.0077 16.4313L18.1859 15.4477ZM15.0214 16.4129C13.8251 16.4129 12.4607 16.0982 10.9189 15.4366L10.4234 16.6238C12.0731 17.3318 13.6088 17.702 15.0214 17.702V16.4129ZM11.2745 16.233L11.8605 14.4403L10.6538 14.0346L10.0678 15.8274L11.2745 16.233ZM11.0249 14.8374C11.9274 15.1968 12.666 15.4557 13.2311 15.6062L13.5539 14.3593C13.0596 14.2277 12.3746 13.9898 11.4894 13.6374L11.0249 14.8374ZM13.2383 15.608C13.8194 15.7554 14.4141 15.8287 15.0214 15.8287V14.5396C14.5162 14.5396 14.025 14.4787 13.5467 14.3574L13.2383 15.608ZM15.0214 15.8287C15.9949 15.8287 16.8456 15.6022 17.5018 15.075L16.7124 14.0645C16.3488 14.3566 15.8091 14.5396 15.0214 14.5396V15.8287ZM17.5057 15.0719C18.1774 14.5234 18.5075 13.7684 18.5075 12.8778H17.2362C17.2362 13.4106 17.0564 13.7836 16.7084 14.0678L17.5057 15.0719ZM18.5075 12.8778C18.5075 12.3306 18.392 11.8216 18.1181 11.3905L17.0495 12.0889C17.1596 12.2621 17.2362 12.5118 17.2362 12.8778H18.5075ZM18.1181 11.3905C17.8423 10.9565 17.4032 10.619 16.8781 10.349L16.3031 11.4988C16.7182 11.7122 16.9413 11.9186 17.0495 12.0889L18.1181 11.3905ZM16.8813 10.3506C16.3602 10.0789 15.6524 9.8266 14.7806 9.58669L14.4477 10.8309C15.2842 11.061 15.894 11.2854 16.2999 11.4971L16.8813 10.3506ZM14.7793 9.58637C13.5262 9.24448 12.7275 8.79721 12.2825 8.30352L11.3442 9.17319C12.0248 9.92838 13.0933 10.4614 14.449 10.8312L14.7793 9.58637ZM12.2825 8.30352C11.8521 7.82592 11.6048 7.15288 11.6048 6.21039H10.3335C10.3335 7.38965 10.649 8.40195 11.3442 9.17319L12.2825 8.30352ZM11.6048 6.21039C11.6048 5.07734 11.9747 4.26598 12.6723 3.68814L11.8681 2.6897C10.831 3.54873 10.3335 4.75168 10.3335 6.21039H11.6048ZM12.6705 3.68965C13.3965 3.09287 14.4396 2.75584 15.8755 2.75584V1.46668C14.2524 1.46668 12.892 1.84809 11.8699 2.68819L12.6705 3.68965Z" fill="#CBCB41"/>
</svg>
