<svg width="22" height="22" viewBox="0 0 22 22" fill="none" xmlns="http://www.w3.org/2000/svg">
<path d="M0.0375938 11.8414C0.42671 7.91453 3.96038 5.04222 7.90655 5.04222H13.7502V1.60479C13.7502 1.3408 13.9014 1.10018 14.1393 0.98468C14.3785 0.870558 14.6604 0.900807 14.8667 1.06718L21.7415 6.56706C21.9051 6.69906 22 6.89568 22 7.10467C22 7.31367 21.9051 7.51029 21.7429 7.64229L14.868 13.1422C14.7429 13.2412 14.5903 13.292 14.4377 13.292C14.3359 13.292 14.2342 13.27 14.1393 13.2247C13.9014 13.1092 13.7502 12.8686 13.7502 12.6046V9.16713H7.7608C5.96234 9.16713 4.32338 10.4596 4.14326 12.2484C3.93563 14.3054 5.54848 16.042 7.56281 16.042H13.0627C13.4422 16.042 13.7502 16.35 13.7502 16.7295V19.4794C13.7502 19.8589 13.4422 20.1669 13.0627 20.1669H7.56281C3.14503 20.1669 -0.406521 16.3486 0.0375938 11.8414Z" fill="#75BEFF"/>
</svg>
