<svg width="22" height="22" viewBox="0 0 22 22" fill="none" xmlns="http://www.w3.org/2000/svg">
<g clip-path="url(#clip0)">
<path d="M21.8638 10.6698L16.2491 5.05502C16.0745 4.88042 15.7655 4.88042 15.5909 5.05502L14.3737 6.2723C14.1919 6.45411 14.1919 6.74883 14.3737 6.93064L18.4422 10.9987L14.3739 15.0675C14.1921 15.2493 14.1921 15.544 14.3739 15.7258L15.5912 16.9431C15.6785 17.0304 15.797 17.0798 15.9203 17.0798C16.0435 17.0798 16.1622 17.0304 16.2495 16.9431L21.8638 11.3286C22.0456 11.1465 22.0456 10.8516 21.8638 10.6698Z" fill="#CBCB41"/>
<path d="M7.62629 15.0674L3.55844 10.9991L7.62699 6.93099C7.71428 6.84369 7.7634 6.72543 7.7634 6.60182C7.7634 6.47843 7.71452 6.35994 7.62699 6.27264L6.4097 5.05536C6.32241 4.96807 6.20391 4.91895 6.08053 4.91895C5.95715 4.91895 5.83866 4.96807 5.75136 5.05536L0.136359 10.6697C-0.0454531 10.8515 -0.0454531 11.1462 0.136359 11.3282L5.75113 16.9428C5.83843 17.0301 5.95692 17.0794 6.0803 17.0794C6.20368 17.0794 6.32217 17.0301 6.40947 16.9428L7.62675 15.7255C7.80857 15.5439 7.80856 15.2492 7.62629 15.0674Z" fill="#CBCB41"/>
<path d="M14.1928 3.16604C14.1337 3.05755 14.034 2.97701 13.9158 2.94209L12.9289 2.65086C12.6826 2.57776 12.4233 2.71907 12.3507 2.9656L7.76952 18.4797C7.7346 18.5982 7.7481 18.7255 7.807 18.8338C7.8659 18.9425 7.96577 19.0228 8.08402 19.058L9.07084 19.3492C9.11484 19.3622 9.1593 19.3685 9.20283 19.3685C9.40374 19.3685 9.58927 19.2372 9.6491 19.0345L14.2303 3.52012C14.2652 3.40162 14.2519 3.27429 14.1928 3.16604Z" fill="#CBCB41"/>
</g>
<defs>
<clipPath id="clip0">
<rect width="22" height="22" fill="white"/>
</clipPath>
</defs>
</svg>
