<svg width="22" height="22" viewBox="0 0 22 22" fill="none" xmlns="http://www.w3.org/2000/svg">
<path d="M21.9624 11.8414C21.5733 7.91453 18.0396 5.04222 14.0934 5.04222H8.24982V1.60479C8.24982 1.3408 8.09858 1.10018 7.86071 0.98468C7.62146 0.870558 7.33959 0.900807 7.13335 1.06718L0.258494 6.56706C0.094873 6.69906 0 6.89568 0 7.10468C0 7.31367 0.094873 7.51029 0.25712 7.64229L7.13197 13.1422C7.25709 13.2412 7.40972 13.292 7.56234 13.292C7.66409 13.292 7.76583 13.27 7.86071 13.2247C8.09858 13.1092 8.24982 12.8686 8.24982 12.6046V9.16713H14.2392C16.0377 9.16713 17.6766 10.4596 17.8567 12.2484C18.0644 14.3054 16.4515 16.042 14.4372 16.042H8.93731C8.55782 16.042 8.24982 16.35 8.24982 16.7295V19.4794C8.24982 19.8589 8.55782 20.1669 8.93731 20.1669H14.4372C18.855 20.1669 22.4065 16.3486 21.9624 11.8414Z" fill="#75BEFF"/>
</svg>
