<svg width="12" height="12" viewBox="0 0 12 12" fill="none" xmlns="http://www.w3.org/2000/svg">
<path d="M11.9997 6.00014C11.9997 6.58015 11.5296 7.0502 10.9493 7.0502H7.04975V10.9499C7.04975 11.5301 6.57955 12.0002 5.99962 12C5.70961 12 5.4471 11.8826 5.25725 11.6927C5.06716 11.5025 4.94965 11.2401 4.94978 10.9502L4.94962 7.05004H1.04958C0.75975 7.05004 0.497452 6.93269 0.307207 6.74244C0.117433 6.55267 3.9194e-08 6.29016 3.9194e-08 6.00014C-0.000156713 5.42024 0.46989 4.95009 1.05013 4.95009H4.94978V1.05029C4.94978 0.470203 5.42008 0 6.00007 0C6.57984 0.000156752 7.04973 0.469889 7.05004 1.0499V4.95009H10.9501C11.53 4.9504 11.9994 5.42024 11.9997 6.00014Z" fill="#D9DFE3"/>
</svg>
