<svg width="18" height="18" viewBox="0 0 18 18" fill="none" xmlns="http://www.w3.org/2000/svg">
<path d="M0.0307601 9.68859C0.349128 6.47566 3.24032 4.12558 6.469 4.12558H11.2501V1.31314C11.2501 1.09715 11.3739 0.900279 11.5685 0.805781C11.7643 0.712408 11.9949 0.737157 12.1636 0.873279L17.7885 5.37318C17.9224 5.48118 18 5.64205 18 5.81305C18 5.98405 17.9224 6.14492 17.7896 6.25291L12.1648 10.7528C12.0624 10.8338 11.9375 10.8754 11.8126 10.8754C11.7294 10.8754 11.6461 10.8574 11.5685 10.8203C11.3739 10.7258 11.2501 10.5289 11.2501 10.313V7.50051H6.34975C4.87828 7.50051 3.53731 8.55799 3.38994 10.0216C3.22007 11.7045 4.53966 13.1254 6.18775 13.1254H10.6877C10.9981 13.1254 11.2501 13.3774 11.2501 13.6879V15.9378C11.2501 16.2483 10.9981 16.5003 10.6877 16.5003H6.18775C2.57321 16.5003 -0.332607 13.3763 0.0307601 9.68859Z" fill="#75BEFF"/>
</svg>
