<svg width="18" height="18" viewBox="0 0 18 18" fill="none" xmlns="http://www.w3.org/2000/svg">
<path d="M17.9692 9.68859C17.6509 6.47566 14.7597 4.12558 11.531 4.12558H6.74986V1.31314C6.74986 1.09715 6.62611 0.900279 6.43149 0.805781C6.23574 0.712408 6.00512 0.737157 5.83638 0.873279L0.211495 5.37318C0.0776233 5.48118 0 5.64205 0 5.81305C0 5.98405 0.0776233 6.14492 0.210371 6.25291L5.83525 10.7528C5.93762 10.8338 6.0625 10.8754 6.18737 10.8754C6.27062 10.8754 6.35386 10.8574 6.43149 10.8203C6.62611 10.7258 6.74986 10.5289 6.74986 10.313V7.50051H11.6503C13.1217 7.50051 14.4627 8.55799 14.6101 10.0216C14.7799 11.7045 13.4603 13.1254 11.8122 13.1254H7.31234C7.00185 13.1254 6.74986 13.3774 6.74986 13.6879V15.9378C6.74986 16.2483 7.00185 16.5003 7.31234 16.5003H11.8122C15.4268 16.5003 18.3326 13.3763 17.9692 9.68859Z" fill="#75BEFF"/>
</svg>
