<svg width="493" height="493" viewBox="0 0 493 493" fill="none" xmlns="http://www.w3.org/2000/svg">
<g clip-path="url(#clip0)">
<path d="M265.2 382.678L484.144 163.73C489.212 158.666 492.004 151.906 492.004 144.698C492.004 137.49 489.212 130.73 484.144 125.666L468.024 109.542C457.52 99.05 440.448 99.05 429.96 109.542L246.104 293.398L62.0439 109.338C56.9759 104.274 50.2199 101.478 43.0159 101.478C35.8039 101.478 29.0479 104.274 23.9759 109.338L7.85989 125.462C2.79189 130.53 -9.3118e-05 137.286 -9.3433e-05 144.494C-9.37481e-05 151.702 2.79189 158.462 7.85989 163.526L227.004 382.678C232.088 387.754 238.876 390.542 246.092 390.526C253.336 390.542 260.12 387.754 265.2 382.678Z" fill="black"/>
</g>
<defs>
<clipPath id="clip0">
<rect width="492.004" height="492.004" fill="white" transform="translate(492.004) rotate(90)"/>
</clipPath>
</defs>
</svg>
