<svg width="463" height="463" viewBox="0 0 463 463" fill="none" xmlns="http://www.w3.org/2000/svg">
<g clip-path="url(#clip0)">
<path d="M459.375 43.0916C459.578 39.619 458.618 36.4222 456.623 33.8185C453.637 28.8471 448.208 25.8231 441.668 25.512C411.749 24.0784 37.1439 24 21.2109 24C16.2829 24 12.0119 25.5076 8.80591 28.3625C2.10791 32.0245 -1.12209 38.4136 0.350908 45.2151C4.48491 64.4168 6.47991 84.6996 6.62691 109.051C6.63191 110.349 6.82291 111.608 7.21291 112.98C8.06091 121.299 15.0229 127.403 24.3209 127.884C35.8479 128.483 100.841 129.088 176.099 129.79C287.327 130.824 425.748 132.112 442.47 133.875C443.246 133.958 444.003 134 444.729 134C447.122 134 449.391 133.573 451.468 132.729C459.287 130.787 463.711 124.877 462.761 117.537C459.202 89.9142 458.094 65.5667 459.375 43.0916ZM424.895 100.722C396.514 99.7864 289.049 99.026 193.154 98.3484C125.506 97.8717 61.2079 97.4135 42.2769 97.002C41.7769 82.6219 40.5409 69.0348 38.5119 55.7482L56.8609 55.7658C139.462 55.8398 381.631 56.0592 422.991 56.6231C422.792 70.7301 423.422 85.245 424.895 100.722Z" fill="black"/>
<path d="M459.375 195.181C459.578 191.709 458.618 188.513 456.623 185.904C453.637 180.932 448.208 177.907 441.668 177.597C411.606 176.158 25.1056 176.085 21.2106 176.085C16.2826 176.085 12.0066 177.593 8.80557 180.448C2.10757 184.108 -1.12143 190.5 0.35057 197.3C4.48457 216.502 6.47957 236.785 6.62657 261.135C6.63157 262.433 6.82257 263.693 7.21257 265.063C8.06057 273.377 15.0176 279.479 24.3156 279.972C35.8476 280.572 100.879 281.171 176.178 281.878C287.373 282.908 425.758 284.196 442.475 285.959C443.251 286.044 444.003 286.085 444.724 286.085C447.126 286.085 449.391 285.655 451.473 284.814C459.293 282.872 463.716 276.957 462.761 269.624C459.202 242.001 458.094 217.656 459.375 195.181ZM424.895 252.808C396.514 251.872 289.003 251.112 193.073 250.432C125.457 249.958 61.1976 249.502 42.2766 249.09C41.7766 234.7 40.5406 221.121 38.5116 207.83L58.7756 207.848C140.938 207.926 381.788 208.141 422.991 208.704C422.792 222.815 423.422 237.331 424.895 252.808Z" fill="black"/>
<path d="M459.375 347.269C459.578 343.791 458.618 340.593 456.623 337.988C453.637 333.021 448.208 329.996 441.668 329.688C411.794 328.251 37.1436 328.179 21.2106 328.175C16.2826 328.175 12.0066 329.678 8.80557 332.533C2.10757 336.197 -1.12143 342.588 0.35057 349.39C4.48457 368.594 6.47957 388.877 6.62657 413.233C6.63157 414.531 6.82257 415.792 7.21257 417.161C8.06057 425.484 15.0226 431.578 24.3156 432.062C35.8526 432.662 100.925 433.27 176.282 433.968C287.429 435.006 425.763 436.295 442.475 438.059C443.251 438.139 444.003 438.175 444.724 438.175C447.121 438.175 449.391 437.75 451.468 436.912C459.287 434.971 463.711 429.056 462.761 421.717C459.202 394.091 458.094 369.745 459.375 347.269ZM424.895 404.901C396.524 403.97 289.105 403.21 193.243 402.53C125.551 402.051 61.2076 401.591 42.2766 401.178C41.7766 386.793 40.5406 373.213 38.5116 359.914L60.6416 359.941C142.38 360.017 381.931 360.236 422.996 360.8C422.792 374.908 423.422 389.423 424.895 404.901Z" fill="black"/>
</g>
<defs>
<clipPath id="clip0">
<rect width="462.89" height="462.891" fill="white"/>
</clipPath>
</defs>
</svg>
