<svg width="30" height="30" viewBox="0 0 30 30" fill="none" xmlns="http://www.w3.org/2000/svg">
<path d="M5.00008 27.0004H24.9991C25.8276 27.0004 26.4992 26.329 26.4992 25.5001C26.4992 24.6719 25.8278 24 24.9991 24H5.00008C4.17154 24 3.5 24.6715 3.5 25.5001C3.5 26.3288 4.17154 27.0004 5.00008 27.0004Z" fill="#A5A5A5"/>
<path d="M24.9006 2.96362C24.6044 2.1907 23.7389 1.80259 22.9633 2.10019L4.71397 9.09983C4.14895 9.31635 3.76905 9.85141 3.7516 10.4562C3.73416 11.0613 4.08142 11.6173 4.63351 11.8666L22.8829 20.1166C23.0828 20.2069 23.2925 20.25 23.499 20.25C24.0706 20.25 24.6161 19.9216 24.8667 19.3671C25.2082 18.6122 24.8724 17.7237 24.1178 17.3822L9.14321 10.6133L24.0369 4.90066C24.8107 4.6045 25.1973 3.73716 24.9006 2.96362Z" fill="#A5A5A5"/>
</svg>
