<svg height="512pt" viewBox="0 0 512 512.0119" width="512pt" xmlns="http://www.w3.org/2000/svg"><path d="m278.757812 98.722656c-3.332031-3.335937-8.734374-3.335937-12.070312-.003906-3.332031 3.332031-3.335938 8.734375-.003906 12.070312l30.175781 30.171876c3.34375 3.332031 8.753906 3.320312 12.082031-.023438s3.316406-8.753906-.027344-12.082031zm0 0"/><path d="m217.738281 37.699219c-2.265625-2.269531-5.609375-3.082031-8.664062-2.097657l-18.300781 5.828126c-4.496094 1.433593-6.976563 6.238281-5.542969 10.730468 1.429687 4.492188 6.234375 6.976563 10.730469 5.542969l13.34375-4.265625 21.179687 21.144531c2.144531 2.21875 5.316406 3.109375 8.300781 2.328125s5.3125-3.113281 6.09375-6.097656c.78125-2.980469-.109375-6.15625-2.328125-8.296875zm0 0"/><path d="m108.015625 367.785156-24.132813 24.144532c-2.21875 2.140624-3.109374 5.3125-2.328124 8.296874.78125 2.984376 3.113281 5.3125 6.097656 6.09375 2.980468.78125 6.15625-.109374 8.296875-2.328124l24.132812-24.128907c3.332031-3.332031 3.335938-8.738281.003907-12.070312-3.332032-3.335938-8.734376-3.339844-12.070313-.007813zm0 0"/><path d="m53.710938 422.101562-12.066407 12.066407c-9.996093 9.996093-9.996093 26.203125 0 36.199219 2.140625 2.21875 5.3125 3.105468 8.296875 2.324218 2.984375-.777344 5.3125-3.109375 6.09375-6.09375.78125-2.980468-.109375-6.15625-2.324218-8.296875-3.332032-3.332031-3.332032-8.734375 0-12.066406l12.066406-12.066406c2.214844-2.144531 3.105468-5.316407 2.324218-8.300781-.78125-2.980469-3.109374-5.3125-6.09375-6.09375-2.984374-.78125-6.15625.109374-8.296874 2.328124zm0 0"/><path d="m512.007812 297.8125c.023438-9.054688-3.578124-17.746094-10-24.132812l-89.601562-89.597657 4.269531-4.265625c13.328125-13.332031 13.328125-34.945312 0-48.273437l-36.199219-36.199219c-13.515624-12.878906-34.757812-12.878906-48.273437 0l-4.265625 4.265625-89.207031-89.179687c-9.195313-9.347657-22.847657-12.753907-35.355469-8.824219l-146.414062 46.675781c-11.164063 3.519531-19.65625 12.644531-22.367188 24.03125-2.882812 11.917969.707031 24.476562 9.457031 33.066406l139.09375 139.050782-165.640625 165.605468c-23.332031 23.328125-23.332031 61.152344 0 84.480469 23.328125 23.328125 61.148438 23.328125 84.476563 0l165.601562-165.613281 48.636719 48.636718c-5.539062 2.953126-9 8.71875-9.007812 14.996094v34.132813c0 9.425781 7.640624 17.066406 17.066406 17.066406h51.199218v51.199219c0 9.425781 7.640626 17.066406 17.066407 17.066406h34.132812c9.425781 0 17.066407-7.640625 17.066407-17.066406v-51.199219h51.199218c9.425782 0 17.066406-7.640625 17.066406-17.066406v-34.132813c0-9.425781-7.640624-17.066406-17.066406-17.066406h-46.421875l53.488281-53.496094c6.433594-6.390625 10.039063-15.089844 10-24.160156zm-172.023437-186.128906 4.269531-4.265625c6.753906-6.449219 17.386719-6.449219 24.140625 0l36.195313 36.199219c6.667968 6.664062 6.667968 17.472656 0 24.140624l-4.265625 4.265626zm-250.027344 370.75c-10.757812 10.859375-26.507812 15.128906-41.28125 11.195312-14.773437-3.933594-26.3125-15.46875-30.25-30.242187-3.9375-14.769531.328125-30.519531 11.183594-41.285157l165.566406-165.597656 30.164063 30.164063 30.175781 30.167969zm404.984375-55.765625h-51.199218c-9.425782 0-17.066407 7.640625-17.066407 17.066406v51.199219h-34.132812v-51.199219c0-9.425781-7.640625-17.066406-17.066407-17.066406h-51.199218v-34.132813h51.199218c9.425782 0 17.066407-7.640625 17.066407-17.066406v-51.203125h34.132812v51.203125c0 .648438.0625 1.296875.195313 1.933594.980468 8.589844 8.226562 15.085937 16.871094 15.132812h51.199218zm-5-116.761719-46.199218 46.199219v-31.839844c0-9.425781-7.640626-17.066406-17.066407-17.066406h-34.132812c-9.425781 0-17.066407 7.640625-17.066407 17.066406v51.203125h-37.199218l-64.65625-64.660156-36.214844-36.207032-181.289062-181.289062c-4.507813-4.402344-6.371094-10.851562-4.90625-16.980469 1.28125-5.597656 5.449218-10.089843 10.9375-11.785156l146.40625-46.625c6.425781-1.933594 13.390624-.15625 18.109374 4.613281l95.222657 95.226563 72.40625 72.402343 95.648437 95.609376c6.664063 6.664062 6.664063 17.46875 0 24.132812zm0 0"/></svg>