<svg width="30" height="30" viewBox="0 0 30 30" fill="none" xmlns="http://www.w3.org/2000/svg">
<path d="M18.6984 20.625L24.3309 13.125L30 20.625H26.25V22.5C26.25 25.6022 23.7272 28.125 20.625 28.125H9.375C6.27281 28.125 3.75 25.6022 3.75 22.5V20.625H7.5V22.5C7.5 23.5331 8.34188 24.375 9.375 24.375H20.625C21.6581 24.375 22.5 23.5331 22.5 22.5V20.625H18.6984Z" fill="#A5A5A5"/>
<path d="M11.3016 9.375L5.66906 16.875L0 9.375H3.75V7.5C3.75 4.39781 6.27281 1.875 9.375 1.875H20.625C23.7272 1.875 26.25 4.39781 26.25 7.5V9.375H22.5V7.5C22.5 6.46688 21.6581 5.625 20.625 5.625H9.375C8.34188 5.625 7.5 6.46688 7.5 7.5V9.375H11.3016Z" fill="#A5A5A5"/>
</svg>
