<svg width="14" height="15" viewBox="0 0 14 15" fill="none" xmlns="http://www.w3.org/2000/svg">
<path d="M8.28262 7.01266L13.7339 1.56117C14.0887 1.20657 14.0887 0.633239 13.7339 0.278643C13.3793 -0.0759538 12.806 -0.0759538 12.4514 0.278643L6.99992 5.73013L1.5486 0.278643C1.19384 -0.0759538 0.620669 -0.0759538 0.266072 0.278643C-0.0886907 0.633239 -0.0886907 1.20657 0.266072 1.56117L5.7174 7.01266L0.266072 12.4641C-0.0886907 12.8187 -0.0886907 13.3921 0.266072 13.7467C0.442789 13.9236 0.675146 14.0124 0.907336 14.0124C1.13953 14.0124 1.37172 13.9236 1.5486 13.7467L6.99992 8.29518L12.4514 13.7467C12.6283 13.9236 12.8605 14.0124 13.0927 14.0124C13.3249 14.0124 13.5571 13.9236 13.7339 13.7467C14.0887 13.3921 14.0887 12.8187 13.7339 12.4641L8.28262 7.01266Z" fill="#C4C4C4"/>
</svg>
