<svg width="30" height="30" viewBox="0 0 30 30" fill="none" xmlns="http://www.w3.org/2000/svg">
<path d="M7.23501 30C9.68635 30 10.9877 27.8107 11.3704 26.5174C11.3765 26.497 11.3822 26.4761 11.3874 26.4549C12.2791 22.7616 13.6996 16.9078 14.752 12.6499H18.5171C19.225 12.6499 19.799 12.0761 19.799 11.3679C19.799 10.6598 19.225 10.086 18.5171 10.086H15.3892C15.726 8.7444 15.9725 7.78892 16.0695 7.46285L16.1773 7.09783C16.5747 5.74154 17.5054 2.56459 18.9446 2.56459C20.2792 2.56459 20.4781 4.61997 20.4872 4.71933C20.544 5.42305 21.1579 5.95457 21.8633 5.89374C22.5693 5.83985 23.0977 5.22285 23.0431 4.51724C22.9234 2.95466 21.9115 0 18.9442 0C15.5843 0 14.3229 4.30652 13.7169 6.37664L13.6138 6.72586C13.4906 7.13551 13.1675 8.3977 12.746 10.086H8.26059C7.55245 10.086 6.97862 10.6598 6.97862 11.3679C6.97862 12.0761 7.55245 12.6499 8.26059 12.6499H12.111C10.7947 17.9888 9.09357 25.0308 8.90643 25.8061C8.83654 26.0092 8.31091 27.4358 7.23564 27.4358C5.5937 27.4358 4.88282 25.1312 4.87714 25.114C4.68011 24.4342 3.97091 24.0408 3.28908 24.2391C2.60915 24.4363 2.21719 25.1472 2.41422 25.8274C2.86281 27.3769 4.38245 30 7.23501 30Z" fill="#A5A5A5"/>
<path d="M26.2473 26.6939C27.0028 26.6939 27.6377 26.1573 27.6377 25.3031C27.6377 24.9063 27.4789 24.5482 27.1411 24.1508L24.479 21.0913L27.0621 18.0714C27.3004 17.7733 27.4789 17.4554 27.4789 17.0382C27.4789 16.2825 26.8628 15.7266 26.0679 15.7266C25.5318 15.7266 25.115 16.0642 24.7567 16.5021L22.7503 19.1237L20.7836 16.5016C20.3857 16.0055 19.9691 15.7266 19.3732 15.7266C18.6175 15.7266 17.9824 16.2636 17.9824 17.1178C17.9824 17.5146 18.1415 17.8727 18.4785 18.2695L20.9623 21.1307L18.24 24.3491C17.9818 24.6472 17.8232 24.965 17.8232 25.3822C17.8232 26.1377 18.4392 26.6935 19.2334 26.6935C19.77 26.6935 20.187 26.3558 20.5447 25.9184L22.6897 23.0976L24.8354 25.9184C25.2341 26.4158 25.6513 26.6939 26.2473 26.6939Z" fill="#A5A5A5"/>
</svg>
