<svg width="30" height="30" viewBox="0 0 30 30" fill="none" xmlns="http://www.w3.org/2000/svg">
<path d="M16.5519 23.3501C15.6947 23.3501 15 24.0446 15 24.9018C15 25.7589 15.6947 26.4539 16.5519 26.4539H28.4482C29.3054 26.4539 30.0001 25.7593 30.0001 24.9018C30.0001 24.0448 29.3056 23.3501 28.4482 23.3501H16.5519Z" fill="#A5A5A5"/>
<path d="M0 9.38439C0 10.2415 0.694727 10.9361 1.55188 10.9361H5.68988V15.0743C5.68988 15.9312 6.3844 16.6262 7.24155 16.6262C8.09871 16.6262 8.79343 15.9316 8.79343 15.0743V10.9361H13.4487C14.3058 10.9361 15.0003 10.2415 15.0003 9.38439C15.0003 8.52724 14.3058 7.83251 13.4487 7.83251H8.79322V2.66007C8.79322 1.80291 8.09849 1.1084 7.24134 1.1084C6.38418 1.1084 5.68967 1.80291 5.68967 2.66007V7.83251H1.55167C0.694727 7.83272 0 8.52745 0 9.38439Z" fill="#A5A5A5"/>
<path d="M27.9059 3.6646C27.2999 3.05841 26.3175 3.05841 25.7113 3.6646L3.13499 26.2417C2.52922 26.8477 2.52922 27.8301 3.13499 28.4359C3.43755 28.7393 3.83523 28.8909 4.23207 28.8909C4.62869 28.8909 5.02659 28.7393 5.32958 28.4359L27.9059 5.85961C28.512 5.25385 28.512 4.27036 27.9059 3.6646Z" fill="#A5A5A5"/>
</svg>
