<svg width="30" height="30" viewBox="0 0 30 30" fill="none" xmlns="http://www.w3.org/2000/svg">
<g clip-path="url(#clip0)">
<path d="M11.4149 6.69261L11.415 6.69306L16.2294 22.2179C16.2294 22.2179 16.2294 22.218 16.2294 22.218C16.4024 22.7763 16.3003 23.3836 15.9533 23.8543L15.9531 23.8545C15.6069 24.3247 15.0573 24.6027 14.472 24.6027C13.6587 24.6027 12.944 24.0708 12.7107 23.2942L12.7107 23.2941L11.6518 19.7725L11.5447 19.4165H11.173H5.38751H5.00736L4.90572 19.7828L3.92249 23.3263C3.71295 24.0804 3.02618 24.6027 2.24294 24.6027C1.69044 24.6027 1.17094 24.3407 0.842434 23.8968L0.842072 23.8964C0.51289 23.4527 0.414502 22.8798 0.576527 22.3516L0.576682 22.3511L5.35933 6.70046L5.35934 6.70041C5.59576 5.92645 6.31043 5.39795 7.11881 5.39795H9.65793C10.4645 5.39795 11.1771 5.92317 11.4149 6.69261ZM5.56564 16.365L5.3884 16.9996H6.0472H10.5132H11.1812L10.9929 16.3586L9.73336 12.0712L9.73271 12.069C9.43473 11.0714 9.1338 9.86264 8.86542 8.78464C8.81505 8.58232 8.76583 8.3846 8.71798 8.19374L8.62312 7.81532H8.23299H8.17579H7.78562L7.69079 8.19379C7.56301 8.70374 7.43994 9.24947 7.31659 9.79644C7.13789 10.5889 6.95861 11.3839 6.76354 12.0765L6.76325 12.0776L5.56564 16.365Z" fill="#A5A5A5" stroke="#A5A5A5"/>
<path d="M27.1069 24.063C27.1362 24.2196 27.2723 24.3323 27.4304 24.3323H29.1697C29.2623 24.3323 29.3493 24.2939 29.4105 24.2277L29.4115 24.2267C29.474 24.1595 29.5052 24.0696 29.4983 23.9794L29.4983 23.9791C29.4517 23.3706 29.4331 22.6473 29.4331 21.9109V17.7376C29.4331 16.3918 29.1273 15.2345 28.4168 14.418C27.7178 13.6147 26.554 13.0586 24.6529 13.0586C23.2277 13.0586 22.0486 13.32 21.1982 13.6229L27.1069 24.063ZM27.1069 24.063C27.1069 24.0628 27.1069 24.0627 27.1069 24.0625L27.0105 23.5384L26.9353 23.1288H26.5188H26.4463H26.2101L26.0601 23.3113C25.3855 24.1322 24.3132 24.6022 23.0107 24.6022C20.8657 24.6022 19.6309 23.0702 19.6309 21.4203C19.6309 20.0409 20.2353 19.0451 21.3239 18.372C22.4423 17.6805 24.0968 17.3181 26.1739 17.3304L26.6769 17.3334V16.8304V16.6579C26.6769 16.2538 26.567 15.7175 26.1228 15.2865C25.6805 14.8572 24.9877 14.6112 23.991 14.6112C23.2013 14.6112 22.3948 14.7695 21.6963 15.0052L21.6962 15.0052C21.5082 15.0686 21.3039 15.0523 21.1291 14.9605L21.1285 14.9602C20.9524 14.868 20.8227 14.7084 20.7691 14.5197L20.7691 14.5197L20.7675 14.5143L20.7564 14.477C20.6561 14.1202 20.8483 13.7478 21.1981 13.623L27.1069 24.063ZM26.7001 21.254L26.7048 21.2394L26.7086 21.2246C26.771 20.9803 26.7978 20.7162 26.7978 20.4627V19.1617V18.6677L26.3039 18.6617C25.2972 18.6494 24.335 18.7594 23.6061 19.1023C23.2351 19.2769 22.9067 19.5202 22.6716 19.855C22.4335 20.1941 22.3122 20.5973 22.3122 21.0521C22.3122 21.6486 22.5157 22.1492 22.9025 22.4953C23.2808 22.8338 23.7793 22.9754 24.285 22.9754C25.4394 22.9754 26.3898 22.2178 26.7001 21.254Z" fill="#A5A5A5" stroke="#A5A5A5"/>
</g>
<defs>
<clipPath id="clip0">
<rect width="30" height="30" fill="white"/>
</clipPath>
</defs>
</svg>
