<svg width="30" height="30" viewBox="0 0 30 30" fill="none" xmlns="http://www.w3.org/2000/svg">
<g clip-path="url(#clip0)">
<path d="M29.8139 14.5494L22.1574 6.89292C21.9193 6.65483 21.498 6.65483 21.2599 6.89292L19.6 8.55285C19.3521 8.80078 19.3521 9.20266 19.6 9.45059L25.148 14.998L19.6003 20.5463C19.3524 20.7942 19.3524 21.1961 19.6003 21.444L21.2603 23.104C21.3793 23.223 21.5409 23.2903 21.7091 23.2903C21.8771 23.2903 22.039 23.223 22.158 23.104L29.8139 15.4478C30.0618 15.1996 30.0618 14.7973 29.8139 14.5494Z" fill="#A5A5A5"/>
<path d="M10.3995 20.5463L4.85241 14.9986L10.4004 9.45121C10.5195 9.33217 10.5865 9.17091 10.5865 9.00234C10.5865 8.8341 10.5198 8.67252 10.4004 8.55347L8.7405 6.89354C8.62146 6.7745 8.45988 6.70752 8.29163 6.70752C8.12339 6.70752 7.96181 6.7745 7.84276 6.89354L0.185945 14.5494C-0.0619815 14.7973 -0.0619815 15.1992 0.185945 15.4475L7.84245 23.1037C7.96149 23.2227 8.12307 23.29 8.29132 23.29C8.45956 23.29 8.62114 23.2227 8.74019 23.1037L10.4001 21.4437C10.648 21.1961 10.648 20.7942 10.3995 20.5463Z" fill="#A5A5A5"/>
<path d="M19.3543 4.31717C19.2737 4.16924 19.1378 4.0594 18.9765 4.01178L17.6309 3.61466C17.295 3.51498 16.9414 3.70767 16.8423 4.04385L10.5953 25.1995C10.5477 25.361 10.5661 25.5347 10.6464 25.6823C10.7267 25.8305 10.8629 25.9401 11.0242 25.988L12.3698 26.3851C12.4298 26.4029 12.4904 26.4115 12.5498 26.4115C12.8238 26.4115 13.0768 26.2324 13.1584 25.9559L19.4054 4.8C19.453 4.63842 19.4349 4.46478 19.3543 4.31717Z" fill="#A5A5A5"/>
</g>
<defs>
<clipPath id="clip0">
<rect width="30" height="30" fill="white"/>
</clipPath>
</defs>
</svg>
