<svg xmlns="http://www.w3.org/2000/svg" width="512" height="512" enable-background="new 0 0 512 512" viewBox="0 0 512 512"><path d="M421.811,254.617c0-32.698-26.602-59.3-59.301-59.3h-10.811c-12.732-16.048-29.414-28.824-48.564-36.848v-38.691
		c0-25.885-21.061-46.944-46.946-46.944c-25.886,0-46.945,21.06-46.945,46.944v38.691c-19.15,8.023-35.832,20.8-48.564,36.848
		H149.49c-32.698,0-59.3,26.602-59.3,59.3v6h44.563c-0.287,3.403-0.441,6.844-0.441,10.32v46.352c0,7.421,0.669,14.688,1.945,21.747
		l-9.538,9.538c-23.12,23.121-23.12,60.741,0.001,83.861l4.242,4.243l36.224-36.224c22.258,23.805,53.92,38.711,89.003,38.711
		c34.987,0,66.573-14.824,88.821-38.515l36.027,36.027l4.242-4.242c11.203-11.2,17.369-26.092,17.369-41.932
		c0-15.839-6.166-30.73-17.369-41.931l-9.221-9.221c1.316-7.158,2.008-14.531,2.008-22.064v-46.352c0-3.477-0.154-6.917-0.441-10.32
		h44.186V254.617z M221.244,119.778c0-19.269,15.677-34.944,34.945-34.944c19.268,0,34.946,15.676,34.946,34.944v34.396
		c-11.076-3.321-22.805-5.114-34.946-5.114c-12.142,0-23.87,1.793-34.945,5.114V119.778z M102.569,248.617
		c2.958-23.258,22.872-41.3,46.921-41.3h2.786c-7.662,12.469-13.142,26.413-15.908,41.3H102.569z M131.23,419.44
		c-14.354-18.537-13.029-45.376,3.975-62.382l4.36-4.359c4.29,14.104,11.075,27.131,19.839,38.568L131.23,419.44z M344.256,382.926
		c-2.408,3.222-4.994,6.303-7.732,9.239c-20.07,21.521-48.656,35.001-80.334,35.001c-31.774,0-60.437-13.563-80.517-35.197
		c-2.732-2.943-5.309-6.033-7.708-9.262c-6.827-9.183-12.256-19.463-15.97-30.523c-2.353-7.007-4.013-14.327-4.908-21.879
		c-0.506-4.27-0.774-8.611-0.774-13.016v-46.352c0-3.48,0.171-6.921,0.488-10.32c0.381-4.067,0.979-8.072,1.793-12
		c2.907-14.034,8.502-27.096,16.217-38.625c3.495-5.224,7.424-10.134,11.737-14.675c9.295-9.783,20.369-17.858,32.696-23.708
		c3.882-1.842,7.886-3.466,12-4.85c10.982-3.693,22.734-5.699,34.945-5.699c12.211,0,23.963,2.006,34.946,5.699
		c4.113,1.384,8.119,3.008,12,4.85c12.328,5.85,23.402,13.925,32.695,23.708c4.158,4.377,7.961,9.095,11.359,14.107
		c7.912,11.667,13.641,24.928,16.596,39.192c0.814,3.928,1.412,7.933,1.793,12c0.318,3.399,0.488,6.84,0.488,10.32v46.352
		c0,4.258-0.252,8.456-0.725,12.589c-0.861,7.502-2.477,14.776-4.775,21.745C356.82,362.984,351.273,373.533,344.256,382.926z
		 M376.795,357.059c8.934,8.935,13.854,20.813,13.854,33.446c0,10.611-3.471,20.69-9.875,28.938l-27.963-27.962
		c8.783-11.41,15.594-24.41,19.916-38.491L376.795,357.059z M376.01,248.617c-2.766-14.887-8.246-28.831-15.906-41.3h2.406
		c24.049,0,43.963,18.042,46.922,41.3H376.01z"/><path d="M335.189,224.182c-3.891-6.51-8.615-12.594-14.133-18.111c-10.381-10.381-22.766-17.956-36.24-22.403
		c-9.135-3.015-18.764-4.606-28.627-4.606c-9.863,0-19.493,1.592-28.627,4.606c-13.475,4.447-25.859,12.022-36.24,22.403
		c-5.702,5.703-10.549,12.017-14.512,18.775c-6.418,10.946-10.47,23.078-11.898,35.771c-0.384,3.406-0.6,6.847-0.6,10.32v46.352
		c0,13.662,3.009,26.892,8.707,38.948c3.913,8.279,9.102,16,15.455,22.931c0.928,1.011,1.871,2.012,2.848,2.988
		c17.417,17.418,40.454,27.01,64.867,27.01c24.413,0,47.45-9.592,64.868-27.01c0.914-0.913,1.793-1.852,2.664-2.795
		c6.609-7.169,11.957-15.192,15.941-23.806c5.494-11.874,8.404-24.859,8.404-38.267v-46.352c0-3.474-0.217-6.914-0.6-10.32
		C346.01,247.669,341.834,235.299,335.189,224.182z M256.189,191.061c14.915,0,29.233,4.142,41.692,11.859l-20.92,38.213h-43.87
		l-20.319-37.115C225.625,195.594,240.583,191.061,256.189,191.061z M282.016,256.886l21.494,37.228l-21.256,36.816l-2.404,4.164
		h-8.996h-31.655h-6.67l-3.598-6.232l-20.063-34.748l20.3-35.159l3.36-5.821h7.133h30.729h9.459L282.016,256.886z M199.806,373.672
		c-15.15-15.151-23.494-35.175-23.494-56.383v-46.352c0-21.208,8.344-41.231,23.494-56.383c1.086-1.085,2.202-2.125,3.336-3.14
		l19.282,35.22l-25.68,44.479c-1.071,1.856-1.071,4.144,0,6l25.442,44.067l-19.359,35.359
		C201.801,375.612,200.792,374.658,199.806,373.672z M256.189,397.166c-15.744,0-30.83-4.607-43.761-13.175l20.201-36.897h44.794
		l20.801,37.995C285.686,392.944,271.24,397.166,256.189,397.166z M336.066,317.289c0,21.208-8.344,41.231-23.494,56.383
		c-1.484,1.483-3.027,2.882-4.6,4.233l-18.975-34.657l26.635-46.135c1.072-1.856,1.072-4.144,0-6l-26.873-46.546l18.898-34.518
		c1.684,1.433,3.332,2.923,4.914,4.505c12.301,12.302,20.113,27.816,22.617,44.567v1.495h0.188c0.443,3.399,0.689,6.842,0.689,10.32
		V317.289z"/><rect width="12" height="13.963" x="269.848" y="112.428"/><rect width="12" height="13.963" x="229.847" y="112.428"/></svg>