<svg width="512" height="512" viewBox="0 0 512 512" fill="none" xmlns="http://www.w3.org/2000/svg">
<path d="M384.821 389.402C365.243 389.402 347.625 377.767 339.938 359.761L295.429 255.5L339.938 151.239C347.625 133.233 365.243 121.598 384.821 121.598H396.921V49H384.821C336.118 49 292.292 77.9431 273.17 122.735L255.96 163.049L238.751 122.735C219.629 77.9431 175.803 49 127.1 49H115V121.598H127.1C146.678 121.598 164.295 133.233 171.983 151.239L216.492 255.5L171.983 359.761C164.296 377.767 146.678 389.402 127.1 389.402H115V462H127.1C175.803 462 219.629 433.057 238.751 388.265L255.96 347.951L273.17 388.265C292.292 433.057 336.118 462 384.821 462H396.921V389.402H384.821Z" fill="black"/>
</svg>
