<?xml version="1.0" encoding="iso-8859-1"?>
<!-- Generator: Adobe Illustrator 16.0.0, SVG Export Plug-In . SVG Version: 6.00 Build 0)  -->
<!DOCTYPE svg PUBLIC "-//W3C//DTD SVG 1.1//EN" "http://www.w3.org/Graphics/SVG/1.1/DTD/svg11.dtd">
<svg version="1.1" id="Capa_1" xmlns="http://www.w3.org/2000/svg" xmlns:xlink="http://www.w3.org/1999/xlink" x="0px" y="0px"
	 width="417.443px" height="417.443px" viewBox="0 0 417.443 417.443" style="enable-background:new 0 0 417.443 417.443;"
	 xml:space="preserve">
<g>
	<path d="M379.805,31.78H37.638C16.885,31.78,0,48.665,0,69.419v278.604c0,20.753,16.885,37.64,37.638,37.64h342.167
		c20.754,0,37.639-16.887,37.639-37.64V69.418C417.443,48.664,400.559,31.78,379.805,31.78z M347.16,70.369
		c14.131,0,25.588,11.455,25.588,25.588c0,14.131-11.457,25.586-25.588,25.586c-14.133,0-25.588-11.455-25.588-25.586
		C321.572,81.824,333.027,70.369,347.16,70.369z M274.105,70.369c14.133,0,25.588,11.455,25.588,25.588
		c0,14.131-11.455,25.586-25.588,25.586c-14.131,0-25.586-11.455-25.586-25.586C248.52,81.824,259.975,70.369,274.105,70.369z
		 M375.066,343.283H42.375V159.446h332.691V343.283L375.066,343.283z"/>
</g>
<g>
</g>
<g>
</g>
<g>
</g>
<g>
</g>
<g>
</g>
<g>
</g>
<g>
</g>
<g>
</g>
<g>
</g>
<g>
</g>
<g>
</g>
<g>
</g>
<g>
</g>
<g>
</g>
<g>
</g>
</svg>
